<svg width="38" height="57" viewBox="0 0 38 57" fill="none" xmlns="http://www.w3.org/2000/svg">
<g id="mdi:cart-heart">
<path id="Vector" d="M20.1404 20.4753L20.2664 20.1186L21.8458 20.6766L21.4858 21.6956L21.1291 21.5696L21.3632 20.9073L20.1404 20.4753Z" fill="#D62828"/>
<path id="Vector_2" d="M15.1244 47.4C15.1244 49.38 13.4229 51 11.3433 51C9.26368 51 7.56219 49.38 7.56219 47.4C7.56219 45.42 9.26368 43.8 11.3433 43.8C13.4229 43.8 15.1244 45.42 15.1244 47.4ZM30.2488 43.8C28.1692 43.8 26.4677 45.42 26.4677 47.4C26.4677 49.38 28.1692 51 30.2488 51C32.3284 51 34.0299 49.38 34.0299 47.4C34.0299 45.42 32.3284 43.8 30.2488 43.8ZM11.7214 38.04V37.86L13.4229 34.8H27.4129C28.7363 34.8 30.0597 34.08 30.6269 33L38 20.4L34.7861 18.6L27.4129 31.2H14.1791L6.23881 15H0V18.6H3.78109L10.5871 32.28L7.9403 36.6C7.75124 37.14 7.56219 37.68 7.56219 38.4C7.56219 40.38 9.26368 42 11.3433 42H34.0299V38.4H12.0995C11.9104 38.4 11.7214 38.22 11.7214 38.04ZM20.796 28.14L19.6617 27.24C15.8806 23.82 13.2338 21.66 13.2338 18.96C13.2338 16.8 15.1244 15 17.393 15C18.7164 15 20.0398 15.54 20.796 16.44C21.5522 15.54 22.8756 15 24.199 15C26.4677 15 28.3582 16.62 28.3582 18.96C28.3582 21.66 25.7114 23.82 21.9303 27.24L20.796 28.14Z" fill="#D62828"/>
</g>
</svg>
