<svg width="41" height="57" viewBox="0 0 41 57" fill="none" xmlns="http://www.w3.org/2000/svg">
<g id="mdi:heart-outline">
<path id="Vector" d="M20.19 44.545L20 44.735L19.791 44.545C10.766 36.356 4.8 30.941 4.8 25.45C4.8 21.65 7.65 18.8 11.45 18.8C14.376 18.8 17.226 20.7 18.233 23.284H21.767C22.774 20.7 25.624 18.8 28.55 18.8C32.35 18.8 35.2 21.65 35.2 25.45C35.2 30.941 29.234 36.356 20.19 44.545ZM28.55 15C25.244 15 22.071 16.539 20 18.952C17.929 16.539 14.756 15 11.45 15C5.598 15 1 19.579 1 25.45C1 32.613 7.46 38.484 17.245 47.357L20 49.865L22.755 47.357C32.54 38.484 39 32.613 39 25.45C39 19.579 34.402 15 28.55 15Z" fill="#D62828"/>
</g>
</svg>
