<svg width="64" height="36" viewBox="0 0 64 36" fill="none" xmlns="http://www.w3.org/2000/svg">
<g id="OBJECTS" clip-path="url(#clip0_1358_6275)">
<path id="Vector" d="M63.8689 31.5654C63.8551 32.9245 61.4744 36.5071 58.7909 36.4862C57.0501 36.4722 52.6877 36.4862 49.6671 36.5071C47.6304 36.5141 45.6349 35.9356 43.9148 34.8273C36.6969 30.1783 17.1281 17.4163 16.2198 15.1998C15.6212 13.7431 15.9859 11.8821 17.0868 10.8227C18.1877 9.76324 21.745 1.44107 26.1074 0.562856C28.9767 -0.015653 29.8849 4.03391 34.1372 5.91581C36.401 6.91949 39.3391 7.7768 39.3391 7.7768C39.3391 7.7768 41.1005 4.22907 41.7198 4.19422C42.346 4.15937 44.9813 11.1503 46.3849 13.7849C47.7886 16.4196 55.5294 26.6376 59.9056 28.0943C64.2817 29.551 63.862 31.5723 63.862 31.5723L63.8689 31.5654Z" fill="#003049"/>
<path id="Vector_2" d="M26.061 14.5328L33.4165 23.9214C33.7399 24.3326 34.3454 24.3675 34.7101 23.9911L38.405 20.1994C38.7903 19.8021 39.4302 19.8649 39.7399 20.3249L43.7238 26.2703C44.2743 27.0858 45.5335 26.5073 45.2789 25.5524L42.7055 15.7944C42.5335 15.1462 41.7284 14.9232 41.2605 15.3971L35.7697 20.9034C35.2743 21.3983 34.4348 21.1334 34.3041 20.4364L32.2949 9.2217C32.1711 8.53167 31.3385 8.25984 30.8362 8.74774L26.1367 13.3619C25.8202 13.6755 25.7857 14.1843 26.061 14.5398V14.5328Z" fill="#76F4CA"/>
<path id="Vector_3" d="M34.8381 35.0017H6.77845C6.35185 35.0017 6.00781 34.6532 6.00781 34.2211C6.00781 33.7889 6.35185 33.4404 6.77845 33.4404H34.8381C35.2647 33.4404 35.6087 33.7889 35.6087 34.2211C35.6087 34.6532 35.2647 35.0017 34.8381 35.0017Z" fill="#76F4CA"/>
<path id="Vector_4" d="M25.3561 28.4773H20.3331C19.9065 28.4773 19.5625 28.1288 19.5625 27.6967C19.5625 27.2645 19.9065 26.916 20.3331 26.916H25.3561C25.7827 26.916 26.1267 27.2645 26.1267 27.6967C26.1267 28.1288 25.7827 28.4773 25.3561 28.4773Z" fill="#76F4CA"/>
<path id="Vector_5" d="M15.8819 28.4773H1.64564C1.21904 28.4773 0.875 28.1288 0.875 27.6967C0.875 27.2645 1.21904 26.916 1.64564 26.916H15.8819C16.3085 26.916 16.6525 27.2645 16.6525 27.6967C16.6525 28.1288 16.3085 28.4773 15.8819 28.4773Z" fill="#76F4CA"/>
<path id="Vector_6" d="M15.8819 21.947H7.79017C7.36357 21.947 7.01953 21.5985 7.01953 21.1664C7.01953 20.7342 7.36357 20.3857 7.79017 20.3857H15.8819C16.3085 20.3857 16.6526 20.7342 16.6526 21.1664C16.6526 21.5985 16.3085 21.947 15.8819 21.947Z" fill="#76F4CA"/>
</g>
<defs>
<clipPath id="clip0_1358_6275">
<rect width="63" height="35" fill="white" transform="translate(0.875 0.5)"/>
</clipPath>
</defs>
</svg>
